ply
format ascii 1.0
comment VCGLIB generated
element vertex 134
property float x
property float y
property float z
element face 264
property list uchar int vertex_indices
end_header
0 0 0 
7.79273e-017 -6.53485e-009 0.0498333 
1.55855e-016 -1.30697e-008 0.0996667 
5.45491e-016 -4.5744e-008 0.348833 
7.01346e-016 -5.88137e-008 0.4485 
9.35128e-016 -7.84182e-008 0.598 
0.05 5.96244e-010 0 
0.05 -5.93861e-009 0.0498333 
0.05 -1.24735e-008 0.0996667 
0.05 -1.90083e-008 0.1495 
0.05 -2.55432e-008 0.199333 
0.05 -3.2078e-008 0.249167 
0.05 -3.86129e-008 0.299 
0.05 -4.51477e-008 0.348833 
0.05 -5.16826e-008 0.398667 
0.05 -5.82174e-008 0.4485 
0.05 -6.47523e-008 0.498333 
0.05 -7.12871e-008 0.548167 
0.05 -7.7822e-008 0.598 
0.1 1.19249e-009 0 
0.1 -5.34236e-009 0.0498333 
0.1 -1.18772e-008 0.0996667 
0.1 -1.84121e-008 0.1495 
0.1 -2.49469e-008 0.199333 
0.1 -3.14818e-008 0.249167 
0.1 -3.80166e-008 0.299 
0.1 -4.45515e-008 0.348833 
0.1 -5.10863e-008 0.398667 
0.1 -5.76212e-008 0.4485 
0.1 -6.4156e-008 0.498333 
0.1 -7.06909e-008 0.548167 
0.15 1.78873e-009 0 
0.15 -4.74612e-009 0.0498333 
0.15 -1.1281e-008 0.0996667 
0.15 -1.78158e-008 0.1495 
0.15 -2.43507e-008 0.199333 
0.15 -7.66295e-008 0.598 
0.15 0.0474999 0.0498333 
0.15 0.0475 0.348833 
0.15 0.0475 0.398667 
0.15 0.0475 0.498333 
0.15 0.0475 0.548167 
0.1 0.0474999 0.0498333 
0.1 0.0474999 0.0996667 
0.1 0.0475 0.1495 
0.1 0.0475 0.199333 
0.1 0.0475 0.249167 
0.1 0.0475 0.299 
0.1 0.0475 0.348833 
0.1 0.0475 0.398667 
0.1 0.0475 0.4485 
0.1 0.0475 0.498333 
0.1 0.0475 0.548167 
0.05 0.0474999 0.0498333 
0.05 0.0475 0.0996667 
0.05 0.0475 0.1495 
0.05 0.0475 0.199333 
0.05 0.0475 0.249167 
0.05 0.0475 0.299 
0.05 0.0475 0.348833 
0.05 0.0475 0.398667 
0.05 0.0475 0.4485 
0.05 0.0475 0.498333 
0.05 0.0475 0.548167 
-5.66431e-010 0.0475 0.0498333 
-5.66431e-010 0.0475 0.0996667 
-5.66431e-010 0.0475 0.199333 
-5.66431e-010 0.0475 0.348833 
-5.66432e-010 0.0475 0.498333 
-5.66432e-010 0.0475 0.548167 
-5.66431e-010 0.0475 0.1495 
-5.66431e-010 0.0475 0.249167 
-5.66431e-010 0.0475 0.299 
-5.66431e-010 0.0475 0.398667 
-5.66432e-010 0.0475 0.4485 
-5.66432e-010 0.0475 0.598 
-1.32136e-009 0.02375 1.03815e-009 
-5.67793e-009 0.02375 0.0498333 
-1.00345e-008 0.02375 0.0996667 
-1.43911e-008 0.02375 0.1495 
-1.87476e-008 0.02375 0.199333 
-2.31042e-008 0.02375 0.249167 
-2.74608e-008 0.02375 0.299 
-3.18173e-008 0.02375 0.348833 
-3.61739e-008 0.02375 0.398667 
-4.05305e-008 0.02375 0.4485 
-4.4887e-008 0.02375 0.498333 
-4.92436e-008 0.02375 0.548167 
2.33782e-016 -1.96046e-008 0.1495 
3.11709e-016 -2.61394e-008 0.199333 
3.89637e-016 -3.26743e-008 0.249167 
4.67564e-016 -3.92091e-008 0.299 
6.23419e-016 -5.22788e-008 0.398667 
7.79273e-016 -6.53485e-008 0.498333 
8.57201e-016 -7.18834e-008 0.548167 
0.15 -3.08855e-008 0.249167 
0.15 -3.74204e-008 0.299 
0.15 -4.39552e-008 0.348833 
0.15 -5.04901e-008 0.398667 
0.15 -5.70249e-008 0.4485 
0.15 -6.35598e-008 0.498333 
0.15 -7.00946e-008 0.548167 
0.15 0.02375 1.03815e-009 
0.15 0.02375 0.0498333 
0.15 0.02375 0.0996667 
0.15 0.02375 0.1495 
0.15 0.02375 0.199333 
0.15 0.02375 0.249167 
0.15 0.02375 0.299 
0.15 0.02375 0.348833 
0.15 0.02375 0.398667 
0.15 0.02375 0.4485 
0.15 0.02375 0.498333 
0.15 0.02375 0.548167 
0.15 0.0474999 0.0996667 
0.15 0.0474999 0.1495 
0.15 0.0475 0.199333 
0.15 0.0475 0.249167 
0.15 0.0475 0.299 
0.15 0.0475 0.4485 
0.05 0.02375 -2.29485e-009 
0.1 0.02375 -6.66599e-009 
-5.66431e-010 0.0475 2.07629e-009 
0.05 0.0474999 2.07629e-009 
0.1 0.0474999 2.07629e-009 
0.15 0.0474999 2.07629e-009 
0.05 0.0475 0.598 
0.1 0.0475 0.598 
0.15 0.0475 0.598 
-5.36002e-008 0.02375 0.598 
0.05 0.02375 0.598 
0.1 0.02375 0.598 
0.15 0.02375 0.598 
0.1 -7.72257e-008 0.598 
3 7 1 0 
3 0 6 7 
3 8 2 1 
3 1 7 8 
3 9 88 2 
3 2 8 9 
3 10 89 88 
3 88 9 10 
3 11 90 89 
3 89 10 11 
3 12 91 90 
3 90 11 12 
3 13 3 91 
3 91 12 13 
3 14 92 3 
3 3 13 14 
3 15 4 92 
3 92 14 15 
3 16 93 4 
3 4 15 16 
3 17 94 93 
3 93 16 17 
3 18 5 94 
3 94 17 18 
3 20 7 6 
3 6 19 20 
3 21 8 7 
3 7 20 21 
3 22 9 8 
3 8 21 22 
3 23 10 9 
3 9 22 23 
3 24 11 10 
3 10 23 24 
3 25 12 11 
3 11 24 25 
3 26 13 12 
3 12 25 26 
3 27 14 13 
3 13 26 27 
3 28 15 14 
3 14 27 28 
3 29 16 15 
3 15 28 29 
3 30 17 16 
3 16 29 30 
3 133 18 17 
3 17 30 133 
3 32 20 19 
3 19 31 32 
3 33 21 20 
3 20 32 33 
3 34 22 21 
3 21 33 34 
3 35 23 22 
3 22 34 35 
3 95 24 23 
3 23 35 95 
3 96 25 24 
3 24 95 96 
3 97 26 25 
3 25 96 97 
3 98 27 26 
3 26 97 98 
3 99 28 27 
3 27 98 99 
3 100 29 28 
3 28 99 100 
3 101 30 29 
3 29 100 101 
3 36 133 30 
3 30 101 36 
3 42 37 125 
3 125 124 42 
3 43 114 37 
3 37 42 43 
3 44 115 114 
3 114 43 44 
3 45 116 115 
3 115 44 45 
3 46 117 116 
3 116 45 46 
3 47 118 117 
3 117 46 47 
3 48 38 118 
3 118 47 48 
3 49 39 38 
3 38 48 49 
3 50 119 39 
3 39 49 50 
3 51 40 119 
3 119 50 51 
3 52 41 40 
3 40 51 52 
3 127 128 41 
3 41 52 127 
3 53 42 124 
3 124 123 53 
3 54 43 42 
3 42 53 54 
3 55 44 43 
3 43 54 55 
3 56 45 44 
3 44 55 56 
3 57 46 45 
3 45 56 57 
3 58 47 46 
3 46 57 58 
3 59 48 47 
3 47 58 59 
3 60 49 48 
3 48 59 60 
3 61 50 49 
3 49 60 61 
3 62 51 50 
3 50 61 62 
3 63 52 51 
3 51 62 63 
3 126 127 52 
3 52 63 126 
3 64 53 123 
3 123 122 64 
3 65 54 53 
3 53 64 65 
3 70 55 54 
3 54 65 70 
3 66 56 55 
3 55 70 66 
3 71 57 56 
3 56 66 71 
3 72 58 57 
3 57 71 72 
3 67 59 58 
3 58 72 67 
3 73 60 59 
3 59 67 73 
3 74 61 60 
3 60 73 74 
3 68 62 61 
3 61 74 68 
3 69 63 62 
3 62 68 69 
3 75 126 63 
3 63 69 75 
3 77 64 122 
3 122 76 77 
3 78 65 64 
3 64 77 78 
3 79 70 65 
3 65 78 79 
3 80 66 70 
3 70 79 80 
3 81 71 66 
3 66 80 81 
3 82 72 71 
3 71 81 82 
3 83 67 72 
3 72 82 83 
3 84 73 67 
3 67 83 84 
3 85 74 73 
3 73 84 85 
3 86 68 74 
3 74 85 86 
3 87 69 68 
3 68 86 87 
3 129 75 69 
3 69 87 129 
3 1 77 76 
3 76 0 1 
3 2 78 77 
3 77 1 2 
3 88 79 78 
3 78 2 88 
3 89 80 79 
3 79 88 89 
3 90 81 80 
3 80 89 90 
3 91 82 81 
3 81 90 91 
3 3 83 82 
3 82 91 3 
3 92 84 83 
3 83 3 92 
3 4 85 84 
3 84 92 4 
3 93 86 85 
3 85 4 93 
3 94 87 86 
3 86 93 94 
3 5 129 87 
3 87 94 5 
3 103 32 31 
3 31 102 103 
3 104 33 32 
3 32 103 104 
3 105 34 33 
3 33 104 105 
3 106 35 34 
3 34 105 106 
3 107 95 35 
3 35 106 107 
3 108 96 95 
3 95 107 108 
3 109 97 96 
3 96 108 109 
3 110 98 97 
3 97 109 110 
3 111 99 98 
3 98 110 111 
3 112 100 99 
3 99 111 112 
3 113 101 100 
3 100 112 113 
3 132 36 101 
3 101 113 132 
3 37 103 102 
3 102 125 37 
3 114 104 103 
3 103 37 114 
3 115 105 104 
3 104 114 115 
3 116 106 105 
3 105 115 116 
3 117 107 106 
3 106 116 117 
3 118 108 107 
3 107 117 118 
3 38 109 108 
3 108 118 38 
3 39 110 109 
3 109 38 39 
3 119 111 110 
3 110 39 119 
3 40 112 111 
3 111 119 40 
3 41 113 112 
3 112 40 41 
3 128 132 113 
3 113 41 128 
3 120 6 0 
3 0 76 120 
3 121 19 6 
3 6 120 121 
3 102 31 19 
3 19 121 102 
3 123 120 76 
3 76 122 123 
3 124 121 120 
3 120 123 124 
3 125 102 121 
3 121 124 125 
3 130 126 75 
3 75 129 130 
3 131 127 126 
3 126 130 131 
3 132 128 127 
3 127 131 132 
3 18 130 129 
3 129 5 18 
3 133 131 130 
3 130 18 133 
3 36 132 131 
3 131 133 36 
